<svg
  aria-label="facturas"
  height="32"
  role="img"
  viewBox="0 0 32 32"
  width="32"
  xmlns="http://www.w3.org/2000/svg"
>
  <rect fill="#1E40AF" height="32" rx="7" width="32" />
  <g
    fill="none"
    stroke="#FFFFFF"
    stroke-linecap="round"
    stroke-linejoin="round"
    stroke-width="2"
    transform="translate(4 4)"
  >
    <path d="M13 16H8" />
    <path d="M14 8H8" />
    <path d="M16 12H8" />
    <path
      d="M4 3a1 1 0 0 1 1-1 1.3 1.3 0 0 1 .7.2l.933.6a1.3 1.3 0 0 0 1.4 0l.934-.6a1.3 1.3 0 0 1 1.4 0l.933.6a1.3 1.3 0 0 0 1.4 0l.933-.6a1.3 1.3 0 0 1 1.4 0l.934.6a1.3 1.3 0 0 0 1.4 0l.933-.6A1.3 1.3 0 0 1 19 2a1 1 0 0 1 1 1v18a1 1 0 0 1-1 1 1.3 1.3 0 0 1-.7-.2l-.933-.6a1.3 1.3 0 0 0-1.4 0l-.934.6a1.3 1.3 0 0 1-1.4 0l-.933-.6a1.3 1.3 0 0 0-1.4 0l-.933.6a1.3 1.3 0 0 1-1.4 0l-.934-.6a1.3 1.3 0 0 0-1.4 0l-.933.6a1.3 1.3 0 0 1-.7.2 1 1 0 0 1-1-1z"
    />
  </g>
</svg>
